<mxfile host="Electron" agent="Mozilla/5.0 (Windows NT 10.0; Win64; x64) AppleWebKit/537.36 (KHTML, like Gecko) draw.io/26.2.15 Chrome/134.0.6998.205 Electron/35.2.1 Safari/537.36" version="26.2.15">
  <diagram name="第 1 页" id="OOpOjsbNx9Gc5aGdLFaI">
    <mxGraphModel dx="1213" dy="828" grid="1" gridSize="10" guides="1" tooltips="1" connect="1" arrows="1" fold="1" page="1" pageScale="1" pageWidth="827" pageHeight="1169" math="0" shadow="0">
      <root>
        <mxCell id="0" />
        <mxCell id="1" parent="0" />
        <mxCell id="cYBwvqrcOCJXcjdk8pMy-1" value="" style="swimlane;startSize=0;" vertex="1" parent="1">
          <mxGeometry x="240" y="440" width="420" height="580" as="geometry" />
        </mxCell>
        <mxCell id="cYBwvqrcOCJXcjdk8pMy-2" value="&lt;font style=&quot;font-size: 20px;&quot;&gt;设备子系统&lt;/font&gt;" style="text;html=1;align=center;verticalAlign=middle;resizable=0;points=[];autosize=1;strokeColor=none;fillColor=none;" vertex="1" parent="cYBwvqrcOCJXcjdk8pMy-1">
          <mxGeometry x="30" y="20" width="120" height="40" as="geometry" />
        </mxCell>
        <mxCell id="cYBwvqrcOCJXcjdk8pMy-6" value="设备管理" style="ellipse;whiteSpace=wrap;html=1;" vertex="1" parent="cYBwvqrcOCJXcjdk8pMy-1">
          <mxGeometry x="60" y="440" width="140" height="70" as="geometry" />
        </mxCell>
        <mxCell id="cYBwvqrcOCJXcjdk8pMy-7" value="检查项目管理" style="ellipse;whiteSpace=wrap;html=1;" vertex="1" parent="cYBwvqrcOCJXcjdk8pMy-1">
          <mxGeometry x="60" y="350" width="140" height="70" as="geometry" />
        </mxCell>
        <mxCell id="cYBwvqrcOCJXcjdk8pMy-8" value="日常巡检" style="ellipse;whiteSpace=wrap;html=1;" vertex="1" parent="cYBwvqrcOCJXcjdk8pMy-1">
          <mxGeometry x="30" y="150" width="140" height="70" as="geometry" />
        </mxCell>
        <mxCell id="cYBwvqrcOCJXcjdk8pMy-9" value="故障上报" style="ellipse;whiteSpace=wrap;html=1;" vertex="1" parent="cYBwvqrcOCJXcjdk8pMy-1">
          <mxGeometry x="260" y="160" width="140" height="70" as="geometry" />
        </mxCell>
        <mxCell id="cYBwvqrcOCJXcjdk8pMy-13" value="&amp;lt;&amp;lt;extend&amp;gt;&amp;gt;" style="html=1;verticalAlign=bottom;labelBackgroundColor=none;endArrow=open;endFill=0;dashed=1;rounded=0;exitX=0;exitY=0.5;exitDx=0;exitDy=0;entryX=1;entryY=0.5;entryDx=0;entryDy=0;" edge="1" parent="cYBwvqrcOCJXcjdk8pMy-1" source="cYBwvqrcOCJXcjdk8pMy-9" target="cYBwvqrcOCJXcjdk8pMy-8">
          <mxGeometry width="160" relative="1" as="geometry">
            <mxPoint x="90" y="180" as="sourcePoint" />
            <mxPoint x="250" y="180" as="targetPoint" />
          </mxGeometry>
        </mxCell>
        <mxCell id="cYBwvqrcOCJXcjdk8pMy-3" value="值班员" style="shape=umlActor;verticalLabelPosition=bottom;verticalAlign=top;html=1;outlineConnect=0;" vertex="1" parent="1">
          <mxGeometry x="160" y="585" width="30" height="60" as="geometry" />
        </mxCell>
        <mxCell id="cYBwvqrcOCJXcjdk8pMy-4" value="管理员" style="shape=umlActor;verticalLabelPosition=bottom;verticalAlign=top;html=1;outlineConnect=0;" vertex="1" parent="1">
          <mxGeometry x="150" y="820" width="30" height="60" as="geometry" />
        </mxCell>
        <mxCell id="cYBwvqrcOCJXcjdk8pMy-10" value="" style="endArrow=classic;html=1;rounded=0;exitX=0.5;exitY=0.5;exitDx=0;exitDy=0;exitPerimeter=0;entryX=0;entryY=0.5;entryDx=0;entryDy=0;" edge="1" parent="1" source="cYBwvqrcOCJXcjdk8pMy-3" target="cYBwvqrcOCJXcjdk8pMy-8">
          <mxGeometry width="50" height="50" relative="1" as="geometry">
            <mxPoint x="90" y="720" as="sourcePoint" />
            <mxPoint x="140" y="670" as="targetPoint" />
          </mxGeometry>
        </mxCell>
        <mxCell id="cYBwvqrcOCJXcjdk8pMy-11" value="" style="endArrow=classic;html=1;rounded=0;exitX=0.5;exitY=0.5;exitDx=0;exitDy=0;exitPerimeter=0;entryX=0;entryY=0.5;entryDx=0;entryDy=0;" edge="1" parent="1" source="cYBwvqrcOCJXcjdk8pMy-4" target="cYBwvqrcOCJXcjdk8pMy-7">
          <mxGeometry width="50" height="50" relative="1" as="geometry">
            <mxPoint x="390" y="650" as="sourcePoint" />
            <mxPoint x="440" y="600" as="targetPoint" />
          </mxGeometry>
        </mxCell>
        <mxCell id="cYBwvqrcOCJXcjdk8pMy-12" value="" style="endArrow=classic;html=1;rounded=0;exitX=0.5;exitY=0.5;exitDx=0;exitDy=0;exitPerimeter=0;entryX=0;entryY=0.5;entryDx=0;entryDy=0;" edge="1" parent="1" source="cYBwvqrcOCJXcjdk8pMy-4" target="cYBwvqrcOCJXcjdk8pMy-6">
          <mxGeometry width="50" height="50" relative="1" as="geometry">
            <mxPoint x="390" y="650" as="sourcePoint" />
            <mxPoint x="440" y="600" as="targetPoint" />
          </mxGeometry>
        </mxCell>
      </root>
    </mxGraphModel>
  </diagram>
</mxfile>
